<?xml version="1.0" encoding="utf-8" standalone="no"?>
<!DOCTYPE svg PUBLIC "-//W3C//DTD SVG 1.1//EN"
  "http://www.w3.org/Graphics/SVG/1.1/DTD/svg11.dtd">
<svg xmlns:xlink="http://www.w3.org/1999/xlink" width="460.8pt" height="345.6pt" viewBox="0 0 460.8 345.6" xmlns="http://www.w3.org/2000/svg" version="1.1">
 <metadata>
  <rdf:RDF xmlns:dc="http://purl.org/dc/elements/1.1/" xmlns:cc="http://creativecommons.org/ns#" xmlns:rdf="http://www.w3.org/1999/02/22-rdf-syntax-ns#">
   <cc:Work>
    <dc:type rdf:resource="http://purl.org/dc/dcmitype/StillImage"/>
    <dc:date>2025-04-30T17:42:09.236802</dc:date>
    <dc:format>image/svg+xml</dc:format>
    <dc:creator>
     <cc:Agent>
      <dc:title>Matplotlib v3.10.1, https://matplotlib.org/</dc:title>
     </cc:Agent>
    </dc:creator>
   </cc:Work>
  </rdf:RDF>
 </metadata>
 <defs>
  <style type="text/css">*{stroke-linejoin: round; stroke-linecap: butt}</style>
 </defs>
 <g id="figure_1">
  <g id="patch_1">
   <path d="M 0 345.6 
L 460.8 345.6 
L 460.8 0 
L 0 0 
z
" style="fill: #ffffff"/>
  </g>
  <g id="axes_1">
   <g id="patch_2">
    <path d="M 57.6 307.584 
L 414.72 307.584 
L 414.72 41.472 
L 57.6 41.472 
z
" style="fill: #ffffff"/>
   </g>
   <g id="matplotlib.axis_1">
    <g id="xtick_1">
     <g id="line2d_1">
      <defs>
       <path id="m278ba9ad99" d="M 0 0 
L 0 3.5 
" style="stroke: #000000; stroke-width: 0.8"/>
      </defs>
      <g>
       <use xlink:href="#m278ba9ad99" x="73.832727" y="307.584" style="stroke: #000000; stroke-width: 0.8"/>
      </g>
     </g>
     <g id="text_1">
      <!-- 0 -->
      <g transform="translate(68.742727 326.7415) scale(0.16 -0.16)">
       <defs>
        <path id="DejaVuSans-30" d="M 2034 4250 
Q 1547 4250 1301 3770 
Q 1056 3291 1056 2328 
Q 1056 1369 1301 889 
Q 1547 409 2034 409 
Q 2525 409 2770 889 
Q 3016 1369 3016 2328 
Q 3016 3291 2770 3770 
Q 2525 4250 2034 4250 
z
M 2034 4750 
Q 2819 4750 3233 4129 
Q 3647 3509 3647 2328 
Q 3647 1150 3233 529 
Q 2819 -91 2034 -91 
Q 1250 -91 836 529 
Q 422 1150 422 2328 
Q 422 3509 836 4129 
Q 1250 4750 2034 4750 
z
" transform="scale(0.015625)"/>
       </defs>
       <use xlink:href="#DejaVuSans-30"/>
      </g>
     </g>
    </g>
    <g id="xtick_2">
     <g id="line2d_2">
      <g>
       <use xlink:href="#m278ba9ad99" x="138.744532" y="307.584" style="stroke: #000000; stroke-width: 0.8"/>
      </g>
     </g>
     <g id="text_2">
      <!-- 2 -->
      <g transform="translate(133.654532 326.7415) scale(0.16 -0.16)">
       <defs>
        <path id="DejaVuSans-32" d="M 1228 531 
L 3431 531 
L 3431 0 
L 469 0 
L 469 531 
Q 828 903 1448 1529 
Q 2069 2156 2228 2338 
Q 2531 2678 2651 2914 
Q 2772 3150 2772 3378 
Q 2772 3750 2511 3984 
Q 2250 4219 1831 4219 
Q 1534 4219 1204 4116 
Q 875 4013 500 3803 
L 500 4441 
Q 881 4594 1212 4672 
Q 1544 4750 1819 4750 
Q 2544 4750 2975 4387 
Q 3406 4025 3406 3419 
Q 3406 3131 3298 2873 
Q 3191 2616 2906 2266 
Q 2828 2175 2409 1742 
Q 1991 1309 1228 531 
z
" transform="scale(0.015625)"/>
       </defs>
       <use xlink:href="#DejaVuSans-32"/>
      </g>
     </g>
    </g>
    <g id="xtick_3">
     <g id="line2d_3">
      <g>
       <use xlink:href="#m278ba9ad99" x="203.656336" y="307.584" style="stroke: #000000; stroke-width: 0.8"/>
      </g>
     </g>
     <g id="text_3">
      <!-- 4 -->
      <g transform="translate(198.566336 326.7415) scale(0.16 -0.16)">
       <defs>
        <path id="DejaVuSans-34" d="M 2419 4116 
L 825 1625 
L 2419 1625 
L 2419 4116 
z
M 2253 4666 
L 3047 4666 
L 3047 1625 
L 3713 1625 
L 3713 1100 
L 3047 1100 
L 3047 0 
L 2419 0 
L 2419 1100 
L 313 1100 
L 313 1709 
L 2253 4666 
z
" transform="scale(0.015625)"/>
       </defs>
       <use xlink:href="#DejaVuSans-34"/>
      </g>
     </g>
    </g>
    <g id="xtick_4">
     <g id="line2d_4">
      <g>
       <use xlink:href="#m278ba9ad99" x="268.56814" y="307.584" style="stroke: #000000; stroke-width: 0.8"/>
      </g>
     </g>
     <g id="text_4">
      <!-- 6 -->
      <g transform="translate(263.47814 326.7415) scale(0.16 -0.16)">
       <defs>
        <path id="DejaVuSans-36" d="M 2113 2584 
Q 1688 2584 1439 2293 
Q 1191 2003 1191 1497 
Q 1191 994 1439 701 
Q 1688 409 2113 409 
Q 2538 409 2786 701 
Q 3034 994 3034 1497 
Q 3034 2003 2786 2293 
Q 2538 2584 2113 2584 
z
M 3366 4563 
L 3366 3988 
Q 3128 4100 2886 4159 
Q 2644 4219 2406 4219 
Q 1781 4219 1451 3797 
Q 1122 3375 1075 2522 
Q 1259 2794 1537 2939 
Q 1816 3084 2150 3084 
Q 2853 3084 3261 2657 
Q 3669 2231 3669 1497 
Q 3669 778 3244 343 
Q 2819 -91 2113 -91 
Q 1303 -91 875 529 
Q 447 1150 447 2328 
Q 447 3434 972 4092 
Q 1497 4750 2381 4750 
Q 2619 4750 2861 4703 
Q 3103 4656 3366 4563 
z
" transform="scale(0.015625)"/>
       </defs>
       <use xlink:href="#DejaVuSans-36"/>
      </g>
     </g>
    </g>
    <g id="xtick_5">
     <g id="line2d_5">
      <g>
       <use xlink:href="#m278ba9ad99" x="333.479945" y="307.584" style="stroke: #000000; stroke-width: 0.8"/>
      </g>
     </g>
     <g id="text_5">
      <!-- 8 -->
      <g transform="translate(328.389945 326.7415) scale(0.16 -0.16)">
       <defs>
        <path id="DejaVuSans-38" d="M 2034 2216 
Q 1584 2216 1326 1975 
Q 1069 1734 1069 1313 
Q 1069 891 1326 650 
Q 1584 409 2034 409 
Q 2484 409 2743 651 
Q 3003 894 3003 1313 
Q 3003 1734 2745 1975 
Q 2488 2216 2034 2216 
z
M 1403 2484 
Q 997 2584 770 2862 
Q 544 3141 544 3541 
Q 544 4100 942 4425 
Q 1341 4750 2034 4750 
Q 2731 4750 3128 4425 
Q 3525 4100 3525 3541 
Q 3525 3141 3298 2862 
Q 3072 2584 2669 2484 
Q 3125 2378 3379 2068 
Q 3634 1759 3634 1313 
Q 3634 634 3220 271 
Q 2806 -91 2034 -91 
Q 1263 -91 848 271 
Q 434 634 434 1313 
Q 434 1759 690 2068 
Q 947 2378 1403 2484 
z
M 1172 3481 
Q 1172 3119 1398 2916 
Q 1625 2713 2034 2713 
Q 2441 2713 2670 2916 
Q 2900 3119 2900 3481 
Q 2900 3844 2670 4047 
Q 2441 4250 2034 4250 
Q 1625 4250 1398 4047 
Q 1172 3844 1172 3481 
z
" transform="scale(0.015625)"/>
       </defs>
       <use xlink:href="#DejaVuSans-38"/>
      </g>
     </g>
    </g>
    <g id="xtick_6">
     <g id="line2d_6">
      <g>
       <use xlink:href="#m278ba9ad99" x="398.391749" y="307.584" style="stroke: #000000; stroke-width: 0.8"/>
      </g>
     </g>
     <g id="text_6">
      <!-- 10 -->
      <g transform="translate(388.211749 326.7415) scale(0.16 -0.16)">
       <defs>
        <path id="DejaVuSans-31" d="M 794 531 
L 1825 531 
L 1825 4091 
L 703 3866 
L 703 4441 
L 1819 4666 
L 2450 4666 
L 2450 531 
L 3481 531 
L 3481 0 
L 794 0 
L 794 531 
z
" transform="scale(0.015625)"/>
       </defs>
       <use xlink:href="#DejaVuSans-31"/>
       <use xlink:href="#DejaVuSans-30" transform="translate(63.623047 0)"/>
      </g>
     </g>
    </g>
    <g id="text_7">
     <!-- Temps [s] -->
     <g transform="translate(197.72 346.2265) scale(0.16 -0.16)">
      <defs>
       <path id="DejaVuSans-54" d="M -19 4666 
L 3928 4666 
L 3928 4134 
L 2272 4134 
L 2272 0 
L 1638 0 
L 1638 4134 
L -19 4134 
L -19 4666 
z
" transform="scale(0.015625)"/>
       <path id="DejaVuSans-65" d="M 3597 1894 
L 3597 1613 
L 953 1613 
Q 991 1019 1311 708 
Q 1631 397 2203 397 
Q 2534 397 2845 478 
Q 3156 559 3463 722 
L 3463 178 
Q 3153 47 2828 -22 
Q 2503 -91 2169 -91 
Q 1331 -91 842 396 
Q 353 884 353 1716 
Q 353 2575 817 3079 
Q 1281 3584 2069 3584 
Q 2775 3584 3186 3129 
Q 3597 2675 3597 1894 
z
M 3022 2063 
Q 3016 2534 2758 2815 
Q 2500 3097 2075 3097 
Q 1594 3097 1305 2825 
Q 1016 2553 972 2059 
L 3022 2063 
z
" transform="scale(0.015625)"/>
       <path id="DejaVuSans-6d" d="M 3328 2828 
Q 3544 3216 3844 3400 
Q 4144 3584 4550 3584 
Q 5097 3584 5394 3201 
Q 5691 2819 5691 2113 
L 5691 0 
L 5113 0 
L 5113 2094 
Q 5113 2597 4934 2840 
Q 4756 3084 4391 3084 
Q 3944 3084 3684 2787 
Q 3425 2491 3425 1978 
L 3425 0 
L 2847 0 
L 2847 2094 
Q 2847 2600 2669 2842 
Q 2491 3084 2119 3084 
Q 1678 3084 1418 2786 
Q 1159 2488 1159 1978 
L 1159 0 
L 581 0 
L 581 3500 
L 1159 3500 
L 1159 2956 
Q 1356 3278 1631 3431 
Q 1906 3584 2284 3584 
Q 2666 3584 2933 3390 
Q 3200 3197 3328 2828 
z
" transform="scale(0.015625)"/>
       <path id="DejaVuSans-70" d="M 1159 525 
L 1159 -1331 
L 581 -1331 
L 581 3500 
L 1159 3500 
L 1159 2969 
Q 1341 3281 1617 3432 
Q 1894 3584 2278 3584 
Q 2916 3584 3314 3078 
Q 3713 2572 3713 1747 
Q 3713 922 3314 415 
Q 2916 -91 2278 -91 
Q 1894 -91 1617 61 
Q 1341 213 1159 525 
z
M 3116 1747 
Q 3116 2381 2855 2742 
Q 2594 3103 2138 3103 
Q 1681 3103 1420 2742 
Q 1159 2381 1159 1747 
Q 1159 1113 1420 752 
Q 1681 391 2138 391 
Q 2594 391 2855 752 
Q 3116 1113 3116 1747 
z
" transform="scale(0.015625)"/>
       <path id="DejaVuSans-73" d="M 2834 3397 
L 2834 2853 
Q 2591 2978 2328 3040 
Q 2066 3103 1784 3103 
Q 1356 3103 1142 2972 
Q 928 2841 928 2578 
Q 928 2378 1081 2264 
Q 1234 2150 1697 2047 
L 1894 2003 
Q 2506 1872 2764 1633 
Q 3022 1394 3022 966 
Q 3022 478 2636 193 
Q 2250 -91 1575 -91 
Q 1294 -91 989 -36 
Q 684 19 347 128 
L 347 722 
Q 666 556 975 473 
Q 1284 391 1588 391 
Q 1994 391 2212 530 
Q 2431 669 2431 922 
Q 2431 1156 2273 1281 
Q 2116 1406 1581 1522 
L 1381 1569 
Q 847 1681 609 1914 
Q 372 2147 372 2553 
Q 372 3047 722 3315 
Q 1072 3584 1716 3584 
Q 2034 3584 2315 3537 
Q 2597 3491 2834 3397 
z
" transform="scale(0.015625)"/>
       <path id="DejaVuSans-20" transform="scale(0.015625)"/>
       <path id="DejaVuSans-5b" d="M 550 4863 
L 1875 4863 
L 1875 4416 
L 1125 4416 
L 1125 -397 
L 1875 -397 
L 1875 -844 
L 550 -844 
L 550 4863 
z
" transform="scale(0.015625)"/>
       <path id="DejaVuSans-5d" d="M 1947 4863 
L 1947 -844 
L 622 -844 
L 622 -397 
L 1369 -397 
L 1369 4416 
L 622 4416 
L 622 4863 
L 1947 4863 
z
" transform="scale(0.015625)"/>
      </defs>
      <use xlink:href="#DejaVuSans-54"/>
      <use xlink:href="#DejaVuSans-65" transform="translate(44.083984 0)"/>
      <use xlink:href="#DejaVuSans-6d" transform="translate(105.607422 0)"/>
      <use xlink:href="#DejaVuSans-70" transform="translate(203.019531 0)"/>
      <use xlink:href="#DejaVuSans-73" transform="translate(266.496094 0)"/>
      <use xlink:href="#DejaVuSans-20" transform="translate(318.595703 0)"/>
      <use xlink:href="#DejaVuSans-5b" transform="translate(350.382812 0)"/>
      <use xlink:href="#DejaVuSans-73" transform="translate(389.396484 0)"/>
      <use xlink:href="#DejaVuSans-5d" transform="translate(441.496094 0)"/>
     </g>
    </g>
   </g>
   <g id="matplotlib.axis_2">
    <g id="ytick_1">
     <g id="line2d_7">
      <defs>
       <path id="m44a4935410" d="M 0 0 
L -3.5 0 
" style="stroke: #000000; stroke-width: 0.8"/>
      </defs>
      <g>
       <use xlink:href="#m44a4935410" x="57.6" y="270.962154" style="stroke: #000000; stroke-width: 0.8"/>
      </g>
     </g>
     <g id="text_8">
      <!-- $\mathdefault{10^{-3}}$ -->
      <g transform="translate(13 277.040904) scale(0.16 -0.16)">
       <defs>
        <path id="DejaVuSans-2212" d="M 678 2272 
L 4684 2272 
L 4684 1741 
L 678 1741 
L 678 2272 
z
" transform="scale(0.015625)"/>
        <path id="DejaVuSans-33" d="M 2597 2516 
Q 3050 2419 3304 2112 
Q 3559 1806 3559 1356 
Q 3559 666 3084 287 
Q 2609 -91 1734 -91 
Q 1441 -91 1130 -33 
Q 819 25 488 141 
L 488 750 
Q 750 597 1062 519 
Q 1375 441 1716 441 
Q 2309 441 2620 675 
Q 2931 909 2931 1356 
Q 2931 1769 2642 2001 
Q 2353 2234 1838 2234 
L 1294 2234 
L 1294 2753 
L 1863 2753 
Q 2328 2753 2575 2939 
Q 2822 3125 2822 3475 
Q 2822 3834 2567 4026 
Q 2313 4219 1838 4219 
Q 1578 4219 1281 4162 
Q 984 4106 628 3988 
L 628 4550 
Q 988 4650 1302 4700 
Q 1616 4750 1894 4750 
Q 2613 4750 3031 4423 
Q 3450 4097 3450 3541 
Q 3450 3153 3228 2886 
Q 3006 2619 2597 2516 
z
" transform="scale(0.015625)"/>
       </defs>
       <use xlink:href="#DejaVuSans-31" transform="translate(0 0.765625)"/>
       <use xlink:href="#DejaVuSans-30" transform="translate(63.623047 0.765625)"/>
       <use xlink:href="#DejaVuSans-2212" transform="translate(128.203125 39.046875) scale(0.7)"/>
       <use xlink:href="#DejaVuSans-33" transform="translate(186.855469 39.046875) scale(0.7)"/>
      </g>
     </g>
    </g>
    <g id="ytick_2">
     <g id="line2d_8">
      <g>
       <use xlink:href="#m44a4935410" x="57.6" y="225.850947" style="stroke: #000000; stroke-width: 0.8"/>
      </g>
     </g>
     <g id="text_9">
      <!-- $\mathdefault{10^{-1}}$ -->
      <g transform="translate(13 231.929697) scale(0.16 -0.16)">
       <use xlink:href="#DejaVuSans-31" transform="translate(0 0.684375)"/>
       <use xlink:href="#DejaVuSans-30" transform="translate(63.623047 0.684375)"/>
       <use xlink:href="#DejaVuSans-2212" transform="translate(128.203125 38.965625) scale(0.7)"/>
       <use xlink:href="#DejaVuSans-31" transform="translate(186.855469 38.965625) scale(0.7)"/>
      </g>
     </g>
    </g>
    <g id="ytick_3">
     <g id="line2d_9">
      <g>
       <use xlink:href="#m44a4935410" x="57.6" y="180.739741" style="stroke: #000000; stroke-width: 0.8"/>
      </g>
     </g>
     <g id="text_10">
      <!-- $\mathdefault{10^{1}}$ -->
      <g transform="translate(22.44 186.818491) scale(0.16 -0.16)">
       <use xlink:href="#DejaVuSans-31" transform="translate(0 0.684375)"/>
       <use xlink:href="#DejaVuSans-30" transform="translate(63.623047 0.684375)"/>
       <use xlink:href="#DejaVuSans-31" transform="translate(128.203125 38.965625) scale(0.7)"/>
      </g>
     </g>
    </g>
    <g id="ytick_4">
     <g id="line2d_10">
      <g>
       <use xlink:href="#m44a4935410" x="57.6" y="135.628535" style="stroke: #000000; stroke-width: 0.8"/>
      </g>
     </g>
     <g id="text_11">
      <!-- $\mathdefault{10^{3}}$ -->
      <g transform="translate(22.44 141.707285) scale(0.16 -0.16)">
       <use xlink:href="#DejaVuSans-31" transform="translate(0 0.765625)"/>
       <use xlink:href="#DejaVuSans-30" transform="translate(63.623047 0.765625)"/>
       <use xlink:href="#DejaVuSans-33" transform="translate(128.203125 39.046875) scale(0.7)"/>
      </g>
     </g>
    </g>
    <g id="ytick_5">
     <g id="line2d_11">
      <g>
       <use xlink:href="#m44a4935410" x="57.6" y="90.517328" style="stroke: #000000; stroke-width: 0.8"/>
      </g>
     </g>
     <g id="text_12">
      <!-- $\mathdefault{10^{5}}$ -->
      <g transform="translate(22.44 96.596078) scale(0.16 -0.16)">
       <defs>
        <path id="DejaVuSans-35" d="M 691 4666 
L 3169 4666 
L 3169 4134 
L 1269 4134 
L 1269 2991 
Q 1406 3038 1543 3061 
Q 1681 3084 1819 3084 
Q 2600 3084 3056 2656 
Q 3513 2228 3513 1497 
Q 3513 744 3044 326 
Q 2575 -91 1722 -91 
Q 1428 -91 1123 -41 
Q 819 9 494 109 
L 494 744 
Q 775 591 1075 516 
Q 1375 441 1709 441 
Q 2250 441 2565 725 
Q 2881 1009 2881 1497 
Q 2881 1984 2565 2268 
Q 2250 2553 1709 2553 
Q 1456 2553 1204 2497 
Q 953 2441 691 2322 
L 691 4666 
z
" transform="scale(0.015625)"/>
       </defs>
       <use xlink:href="#DejaVuSans-31" transform="translate(0 0.684375)"/>
       <use xlink:href="#DejaVuSans-30" transform="translate(63.623047 0.684375)"/>
       <use xlink:href="#DejaVuSans-35" transform="translate(128.203125 38.965625) scale(0.7)"/>
      </g>
     </g>
    </g>
    <g id="ytick_6">
     <g id="line2d_12">
      <g>
       <use xlink:href="#m44a4935410" x="57.6" y="45.406122" style="stroke: #000000; stroke-width: 0.8"/>
      </g>
     </g>
     <g id="text_13">
      <!-- $\mathdefault{10^{7}}$ -->
      <g transform="translate(22.44 51.484872) scale(0.16 -0.16)">
       <defs>
        <path id="DejaVuSans-37" d="M 525 4666 
L 3525 4666 
L 3525 4397 
L 1831 0 
L 1172 0 
L 2766 4134 
L 525 4134 
L 525 4666 
z
" transform="scale(0.015625)"/>
       </defs>
       <use xlink:href="#DejaVuSans-31" transform="translate(0 0.684375)"/>
       <use xlink:href="#DejaVuSans-30" transform="translate(63.623047 0.684375)"/>
       <use xlink:href="#DejaVuSans-37" transform="translate(128.203125 38.965625) scale(0.7)"/>
      </g>
     </g>
    </g>
    <g id="text_14">
     <!-- Hauteur [m] -->
     <g transform="translate(5.6725 223.51175) rotate(-90) scale(0.16 -0.16)">
      <defs>
       <path id="DejaVuSans-48" d="M 628 4666 
L 1259 4666 
L 1259 2753 
L 3553 2753 
L 3553 4666 
L 4184 4666 
L 4184 0 
L 3553 0 
L 3553 2222 
L 1259 2222 
L 1259 0 
L 628 0 
L 628 4666 
z
" transform="scale(0.015625)"/>
       <path id="DejaVuSans-61" d="M 2194 1759 
Q 1497 1759 1228 1600 
Q 959 1441 959 1056 
Q 959 750 1161 570 
Q 1363 391 1709 391 
Q 2188 391 2477 730 
Q 2766 1069 2766 1631 
L 2766 1759 
L 2194 1759 
z
M 3341 1997 
L 3341 0 
L 2766 0 
L 2766 531 
Q 2569 213 2275 61 
Q 1981 -91 1556 -91 
Q 1019 -91 701 211 
Q 384 513 384 1019 
Q 384 1609 779 1909 
Q 1175 2209 1959 2209 
L 2766 2209 
L 2766 2266 
Q 2766 2663 2505 2880 
Q 2244 3097 1772 3097 
Q 1472 3097 1187 3025 
Q 903 2953 641 2809 
L 641 3341 
Q 956 3463 1253 3523 
Q 1550 3584 1831 3584 
Q 2591 3584 2966 3190 
Q 3341 2797 3341 1997 
z
" transform="scale(0.015625)"/>
       <path id="DejaVuSans-75" d="M 544 1381 
L 544 3500 
L 1119 3500 
L 1119 1403 
Q 1119 906 1312 657 
Q 1506 409 1894 409 
Q 2359 409 2629 706 
Q 2900 1003 2900 1516 
L 2900 3500 
L 3475 3500 
L 3475 0 
L 2900 0 
L 2900 538 
Q 2691 219 2414 64 
Q 2138 -91 1772 -91 
Q 1169 -91 856 284 
Q 544 659 544 1381 
z
M 1991 3584 
L 1991 3584 
z
" transform="scale(0.015625)"/>
       <path id="DejaVuSans-74" d="M 1172 4494 
L 1172 3500 
L 2356 3500 
L 2356 3053 
L 1172 3053 
L 1172 1153 
Q 1172 725 1289 603 
Q 1406 481 1766 481 
L 2356 481 
L 2356 0 
L 1766 0 
Q 1100 0 847 248 
Q 594 497 594 1153 
L 594 3053 
L 172 3053 
L 172 3500 
L 594 3500 
L 594 4494 
L 1172 4494 
z
" transform="scale(0.015625)"/>
       <path id="DejaVuSans-72" d="M 2631 2963 
Q 2534 3019 2420 3045 
Q 2306 3072 2169 3072 
Q 1681 3072 1420 2755 
Q 1159 2438 1159 1844 
L 1159 0 
L 581 0 
L 581 3500 
L 1159 3500 
L 1159 2956 
Q 1341 3275 1631 3429 
Q 1922 3584 2338 3584 
Q 2397 3584 2469 3576 
Q 2541 3569 2628 3553 
L 2631 2963 
z
" transform="scale(0.015625)"/>
      </defs>
      <use xlink:href="#DejaVuSans-48"/>
      <use xlink:href="#DejaVuSans-61" transform="translate(75.195312 0)"/>
      <use xlink:href="#DejaVuSans-75" transform="translate(136.474609 0)"/>
      <use xlink:href="#DejaVuSans-74" transform="translate(199.853516 0)"/>
      <use xlink:href="#DejaVuSans-65" transform="translate(239.0625 0)"/>
      <use xlink:href="#DejaVuSans-75" transform="translate(300.585938 0)"/>
      <use xlink:href="#DejaVuSans-72" transform="translate(363.964844 0)"/>
      <use xlink:href="#DejaVuSans-20" transform="translate(405.078125 0)"/>
      <use xlink:href="#DejaVuSans-5b" transform="translate(436.865234 0)"/>
      <use xlink:href="#DejaVuSans-6d" transform="translate(475.878906 0)"/>
      <use xlink:href="#DejaVuSans-5d" transform="translate(573.291016 0)"/>
     </g>
    </g>
   </g>
   <g id="line2d_13">
    <path d="M 73.832727 209.655345 
L 76.941594 209.777875 
L 80.716647 210.15489 
L 81.604895 210.450851 
L 82.493143 210.983376 
L 83.38139 211.765772 
L 84.269638 212.818969 
L 85.157886 214.173957 
L 86.046134 215.875931 
L 86.934381 217.991476 
L 87.822629 220.621694 
L 88.710877 223.928053 
L 89.599124 228.189166 
L 90.26531 232.318313 
L 90.931496 237.728136 
L 91.597682 245.42459 
L 92.041806 253.140001 
L 92.48593 266.332876 
L 92.707992 279.975391 
L 92.70865 346.6 
M 93.15161 346.6 
L 93.152115 295.488 
L 93.152621 346.6 
M 93.595731 346.6 
L 93.596239 295.146573 
L 93.596748 346.6 
M 94.039851 346.6 
L 94.040363 294.803382 
L 94.040875 346.6 
M 94.483972 346.6 
L 94.484487 294.458546 
L 94.485002 346.6 
M 94.928092 346.6 
L 94.928611 294.112177 
L 94.92913 346.6 
M 95.372212 346.6 
L 95.372735 293.764379 
L 95.373257 346.6 
M 95.816333 346.6 
L 95.816859 293.415249 
L 95.817384 346.6 
M 96.260453 346.6 
L 96.260982 293.064878 
L 96.261512 346.6 
M 96.704574 346.6 
L 96.705106 292.713352 
L 96.705639 346.6 
M 97.148694 346.6 
L 97.14923 292.360748 
L 97.149766 346.6 
M 97.592814 346.6 
L 97.593354 292.00714 
L 97.593894 346.6 
M 98.036935 346.6 
L 98.037478 291.652598 
L 98.038021 346.6 
M 98.481055 346.6 
L 98.481602 291.297184 
L 98.482148 346.6 
M 98.925176 346.6 
L 98.925726 290.940958 
L 98.926276 346.6 
M 99.369296 346.6 
L 99.36985 290.583975 
L 99.370403 346.6 
M 99.813416 346.6 
L 99.813973 290.226286 
L 99.814531 346.6 
M 100.257537 346.6 
L 100.258097 289.867939 
L 100.258658 346.6 
M 100.701657 346.6 
L 100.702221 289.508977 
L 100.702785 346.6 
M 101.145777 346.6 
L 101.146345 289.149443 
L 101.146913 346.6 
M 101.589898 346.6 
L 101.590469 288.789373 
L 101.59104 346.6 
M 102.034018 346.6 
L 102.034593 288.428803 
L 102.035168 346.6 
M 102.478138 346.6 
L 102.478717 288.067765 
L 102.479295 346.6 
M 102.922258 346.6 
L 102.92284 287.706291 
L 102.923422 346.6 
M 103.366379 346.6 
L 103.366964 287.344407 
L 103.36755 346.6 
M 103.810499 346.6 
L 103.811088 286.982141 
L 103.811677 346.6 
M 104.254619 346.6 
L 104.255212 286.619515 
L 104.255805 346.6 
M 104.69874 346.6 
L 104.699336 286.256553 
L 104.699932 346.6 
M 105.14286 346.6 
L 105.14346 285.893275 
L 105.14406 346.6 
M 105.58698 346.6 
L 105.587584 285.529699 
L 105.588187 346.6 
M 106.0311 346.6 
L 106.031707 285.165845 
L 106.032315 346.6 
M 106.475221 346.6 
L 106.475831 284.801727 
L 106.476442 346.6 
M 106.919341 346.6 
L 106.919955 284.437361 
L 106.920569 346.6 
M 107.363461 346.6 
L 107.364079 284.072761 
L 107.364697 346.6 
M 107.807582 346.6 
L 107.808203 283.707939 
L 107.808824 346.6 
M 108.251702 346.6 
L 108.252327 283.342908 
L 108.252952 346.6 
M 108.695822 346.6 
L 108.696451 282.977679 
L 108.697079 346.6 
M 109.139942 346.6 
L 109.140575 282.612262 
L 109.141207 346.6 
M 109.584063 346.6 
L 109.584698 282.246665 
L 109.585334 346.6 
M 110.028183 346.6 
L 110.028822 281.880898 
L 110.029462 346.6 
M 110.472303 346.6 
L 110.472946 281.514969 
L 110.473589 346.6 
M 110.916423 346.6 
L 110.91707 281.148884 
L 110.917717 346.6 
M 111.360544 346.6 
L 111.361194 280.782651 
L 111.583256 280.875531 
L 111.805318 261.731211 
L 112.915627 241.781303 
L 113.359751 237.147481 
L 114.025937 231.706678 
L 115.358309 224.505693 
L 116.69068 219.641036 
L 118.245114 215.73611 
L 118.9113 214.405987 
L 120.465733 212.185933 
L 121.131919 211.454702 
L 122.908414 210.305919 
L 124.68491 210.095144 
L 126.461405 210.801339 
L 128.459963 212.86214 
L 128.682025 213.08899 
L 130.902644 217.345874 
L 131.56883 219.341701 
L 131.790892 219.806033 
L 132.457077 222.332634 
L 132.679139 222.87271 
L 132.901201 224.121124 
L 133.123263 224.696106 
L 133.345325 226.159427 
L 133.567387 226.762222 
L 133.789449 228.50967 
L 134.011511 229.124238 
L 134.233573 231.26454 
L 134.455635 231.85575 
L 134.677697 234.572184 
L 134.899759 235.061189 
L 135.121821 238.69458 
L 135.343883 238.891188 
L 135.565945 244.177268 
L 135.788006 243.557325 
L 136.010068 252.58121 
L 136.23213 249.286608 
L 136.454192 278.904297 
L 136.676254 255.787673 
L 136.67715 346.6 
M 137.11952 346.6 
L 137.120378 259.69889 
L 137.121236 346.6 
M 137.563641 346.6 
L 137.564502 259.34663 
L 137.565363 346.6 
M 138.007761 346.6 
L 138.008626 258.99436 
L 138.00949 346.6 
M 138.451882 346.6 
L 138.45275 258.642077 
L 138.453618 346.6 
M 138.896002 346.6 
L 138.896874 258.289779 
L 138.897745 346.6 
M 139.340122 346.6 
L 139.340997 257.937465 
L 139.341872 346.6 
M 139.784243 346.6 
L 139.785121 257.585132 
L 139.786 346.6 
M 140.228363 346.6 
L 140.229245 257.232779 
L 140.230127 346.6 
M 140.672484 346.6 
L 140.673369 256.880404 
L 140.674254 346.6 
M 141.116604 346.6 
L 141.117493 256.528005 
L 141.118382 346.6 
M 141.560724 346.6 
L 141.561617 256.175581 
L 141.562509 346.6 
M 142.004845 346.6 
L 142.005741 255.823129 
L 142.006636 346.6 
M 142.448965 346.6 
L 142.449864 255.470649 
L 142.450764 346.6 
M 142.893086 346.6 
L 142.893988 255.118139 
L 142.894891 346.6 
M 143.337206 346.6 
L 143.338112 254.765596 
L 143.339018 346.6 
M 143.781326 346.6 
L 143.782236 254.413021 
L 143.783146 346.6 
M 144.225447 346.6 
L 144.22636 254.060411 
L 144.227273 346.6 
M 144.669567 346.6 
L 144.670484 253.707766 
L 144.6714 346.6 
M 145.113688 346.6 
L 145.114608 253.355083 
L 145.115528 346.6 
M 145.557808 346.6 
L 145.558732 253.002362 
L 145.559655 346.6 
M 146.001928 346.6 
L 146.002855 252.649601 
L 146.003782 346.6 
M 146.446049 346.6 
L 146.446979 252.2968 
L 146.44791 346.6 
M 146.890169 346.6 
L 146.891103 251.943957 
L 146.892037 346.6 
M 147.33429 346.6 
L 147.335227 251.591071 
L 147.336164 346.6 
M 147.77841 346.6 
L 147.779351 251.238142 
L 147.780292 346.6 
M 148.22253 346.6 
L 148.223475 250.885167 
L 148.224419 346.6 
M 148.666651 346.6 
L 148.667599 250.532147 
L 148.668546 346.6 
M 149.110771 346.6 
L 149.111722 250.179079 
L 149.112674 346.6 
M 149.554892 346.6 
L 149.555846 249.825965 
L 149.556801 346.6 
M 149.999012 346.6 
L 149.99997 249.472801 
L 150.000928 346.6 
M 150.443132 346.6 
L 150.444094 249.119589 
L 150.445056 346.6 
M 150.887253 346.6 
L 150.888218 248.766326 
L 150.889183 346.6 
M 151.331373 346.6 
L 151.332342 248.413012 
L 151.33331 346.6 
M 151.775494 346.6 
L 151.776466 248.059647 
L 151.777438 346.6 
M 152.219614 346.6 
L 152.220589 247.706229 
L 152.221565 346.6 
M 152.663734 346.6 
L 152.664713 247.352758 
L 152.665692 346.6 
M 153.107855 346.6 
L 153.108837 246.999234 
L 153.10982 346.6 
M 153.551975 346.6 
L 153.552961 246.645655 
L 153.553947 346.6 
M 153.996096 346.6 
L 153.997085 246.292021 
L 153.998074 346.6 
M 154.440216 346.6 
L 154.441209 245.938332 
L 154.442202 346.6 
M 154.884336 346.6 
L 154.885333 245.584587 
L 154.886329 346.6 
M 155.328457 346.6 
L 155.329457 245.230785 
L 155.330456 346.6 
M 155.772577 346.6 
L 155.77358 244.876925 
L 155.774584 346.6 
M 156.216697 346.6 
L 156.217704 244.523009 
L 156.218711 346.6 
M 156.660818 346.6 
L 156.661828 244.169034 
L 156.662838 346.6 
M 157.104938 346.6 
L 157.105952 243.815 
L 157.106966 346.6 
M 157.549059 346.6 
L 157.550076 243.460908 
L 157.551093 346.6 
M 157.993179 346.6 
L 157.9942 243.106756 
L 157.99522 346.6 
M 158.437299 346.6 
L 158.438324 242.752544 
L 158.439348 346.6 
M 158.88142 346.6 
L 158.882447 242.398272 
L 158.883475 346.6 
M 159.32554 346.6 
L 159.326571 242.04394 
L 159.327602 346.6 
M 159.769661 346.6 
L 159.770695 241.689547 
L 159.77173 346.6 
M 160.213781 346.6 
L 160.214819 241.335092 
L 160.215857 346.6 
M 160.657901 346.6 
L 160.658943 240.980576 
L 160.659984 346.6 
M 161.102022 346.6 
L 161.103067 240.625998 
L 161.104112 346.6 
M 161.546142 346.6 
L 161.547191 240.271358 
L 161.548239 346.6 
M 161.990262 346.6 
L 161.991315 239.916655 
L 161.992367 346.6 
M 162.434383 346.6 
L 162.435438 239.56189 
L 162.436494 346.6 
M 162.878503 346.6 
L 162.879562 239.207062 
L 162.880621 346.6 
M 163.322624 346.6 
L 163.323686 238.85217 
L 163.324749 346.6 
M 163.766744 346.6 
L 163.76781 238.497216 
L 163.768876 346.6 
M 164.210864 346.6 
L 164.211934 238.142198 
L 164.213003 346.6 
M 164.654985 346.6 
L 164.656058 237.787116 
L 164.657131 346.6 
M 165.099105 346.6 
L 165.100182 237.43197 
L 165.101258 346.6 
M 165.543226 346.6 
L 165.544305 237.07676 
L 165.545385 346.6 
M 165.987351 346.6 
L 165.988429 237.250926 
L 165.989507 346.6 
M 166.431486 346.6 
L 166.432553 238.378868 
L 166.43362 346.6 
M 166.875634 346.6 
L 166.876677 240.837575 
L 166.87772 346.6 
M 167.319809 346.6 
L 167.320801 246.001306 
L 167.321793 346.6 
M 167.76415 346.6 
L 167.764925 268.123712 
L 167.7657 346.6 
M 186.417164 346.6 
L 186.418127 248.95769 
L 186.41909 346.6 
M 186.861148 346.6 
L 186.862251 234.741562 
L 186.863354 346.6 
M 187.305219 346.6 
L 187.306375 229.321764 
L 187.307531 346.6 
M 187.74931 346.6 
L 187.750499 225.985241 
L 187.751687 346.6 
M 188.193411 346.6 
L 188.194623 223.624007 
L 188.195834 346.6 
M 188.637517 346.6 
L 188.638746 221.839765 
L 188.639976 346.6 
M 189.081627 346.6 
L 189.08287 220.443501 
L 189.084113 346.6 
M 189.52574 346.6 
L 189.526994 219.330684 
L 189.528248 346.6 
M 189.969855 346.6 
L 189.971118 218.437545 
L 189.972381 346.6 
M 190.413972 346.6 
L 190.415242 217.722444 
L 190.416512 346.6 
M 190.858091 346.6 
L 190.859366 217.156804 
L 190.860641 346.6 
M 191.30221 346.6 
L 191.30349 216.720264 
L 191.304769 346.6 
M 191.746331 346.6 
L 191.747613 216.369407 
L 191.748896 346.6 
M 192.190451 346.6 
L 192.191737 216.018565 
L 192.193024 346.6 
M 192.634571 346.6 
L 192.635861 215.667738 
L 192.637151 346.6 
M 193.078692 346.6 
L 193.079985 215.316926 
L 193.081278 346.6 
M 193.522812 346.6 
L 193.524109 214.96613 
L 193.525406 346.6 
M 193.966933 346.6 
L 193.968233 214.615349 
L 193.969533 346.6 
M 194.411053 346.6 
L 194.412357 214.264583 
L 194.41366 346.6 
M 194.855174 346.6 
L 194.856481 213.913832 
L 194.857787 346.6 
M 195.299294 346.6 
L 195.300604 213.563097 
L 195.301915 346.6 
M 195.743414 346.6 
L 195.744728 213.212377 
L 195.746042 346.6 
M 196.187535 346.6 
L 196.188852 212.861671 
L 196.190169 346.6 
M 196.631655 346.6 
L 196.632976 212.510981 
L 196.634297 346.6 
M 197.075776 346.6 
L 197.0771 212.160307 
L 197.078424 346.6 
M 197.519896 346.6 
L 197.521224 211.809647 
L 197.522551 346.6 
M 197.964017 346.6 
L 197.965348 211.459003 
L 197.966679 346.6 
M 198.408137 346.6 
L 198.409471 211.108373 
L 198.410806 346.6 
M 198.852258 346.6 
L 198.853595 210.757759 
L 198.854933 346.6 
M 199.296378 346.6 
L 199.297719 210.407161 
L 199.29906 346.6 
M 199.740498 346.6 
L 199.741843 210.056577 
L 199.743188 346.6 
M 200.184619 346.6 
L 200.185967 209.706009 
L 200.187315 346.6 
M 200.628739 346.6 
L 200.630091 209.355456 
L 200.631442 346.6 
M 201.07286 346.6 
L 201.074215 209.004918 
L 201.07557 346.6 
M 201.51698 346.6 
L 201.518339 208.654395 
L 201.519697 346.6 
M 201.961101 346.6 
L 201.962462 208.303888 
L 201.963824 346.6 
M 202.405221 346.6 
L 202.406586 207.953397 
L 202.407952 346.6 
M 202.849341 346.6 
L 202.85071 207.602921 
L 202.852079 346.6 
M 203.293462 346.6 
L 203.294834 207.25246 
L 203.296206 346.6 
M 203.737582 346.6 
L 203.738958 206.902015 
L 203.740333 346.6 
M 204.181703 346.6 
L 204.183082 206.551586 
L 204.184461 346.6 
M 204.625823 346.6 
L 204.627206 206.201172 
L 204.628588 346.6 
M 205.069944 346.6 
L 205.071329 205.850774 
L 205.072715 346.6 
M 205.514064 346.6 
L 205.515453 205.500392 
L 205.516843 346.6 
M 205.958184 346.6 
L 205.959577 205.150026 
L 205.96097 346.6 
M 206.402305 346.6 
L 206.403701 204.799676 
L 206.405097 346.6 
M 206.846425 346.6 
L 206.847825 204.449342 
L 206.849224 346.6 
M 207.290546 346.6 
L 207.291949 204.099024 
L 207.293352 346.6 
M 207.734666 346.6 
L 207.736073 203.748722 
L 207.737479 346.6 
M 208.178787 346.6 
L 208.180196 203.398437 
L 208.181606 346.6 
M 208.622907 346.6 
L 208.62432 203.048167 
L 208.625734 346.6 
M 209.067028 346.6 
L 209.068444 202.697915 
L 209.069861 346.6 
M 209.511148 346.6 
L 209.512568 202.347678 
L 209.513988 346.6 
M 209.955268 346.6 
L 209.956692 202.000399 
L 209.958115 346.6 
M 210.399389 346.6 
L 210.400816 201.676274 
L 210.402243 346.6 
M 210.84351 346.6 
L 210.84494 201.373337 
L 210.846369 346.6 
M 211.287631 346.6 
L 211.289064 201.089008 
L 211.290496 346.6 
M 211.731752 346.6 
L 211.733187 200.820752 
L 211.734622 346.6 
M 212.175874 346.6 
L 212.177311 200.566066 
L 212.178749 346.6 
M 212.619995 346.6 
L 212.621435 200.322475 
L 212.622875 346.6 
M 213.064117 346.6 
L 213.065559 200.087533 
L 213.067001 346.6 
M 213.508238 346.6 
L 213.509683 199.858825 
L 213.511127 346.6 
M 213.95236 346.6 
L 213.953807 199.633977 
L 213.955253 346.6 
M 214.396482 346.6 
L 214.397931 199.410674 
L 214.399379 346.6 
M 214.840603 346.6 
L 214.842054 199.186673 
L 214.843506 346.6 
M 215.284725 346.6 
L 215.286178 198.959828 
L 215.287632 346.6 
M 215.728847 346.6 
L 215.730302 198.728113 
L 215.731758 346.6 
M 216.172968 346.6 
L 216.174426 198.48965 
L 216.175884 346.6 
M 216.61709 346.6 
L 216.61855 198.242732 
L 216.62001 346.6 
M 217.061211 346.6 
L 217.062674 197.985851 
L 217.064137 346.6 
M 217.505332 346.6 
L 217.506798 197.717719 
L 217.508263 346.6 
M 217.949453 346.6 
L 217.950922 197.437289 
L 217.95239 346.6 
M 218.393574 346.6 
L 218.395045 197.143765 
L 218.396516 346.6 
M 218.837695 346.6 
L 218.839169 196.836614 
L 218.840643 346.6 
M 219.281816 346.6 
L 219.283293 196.515566 
L 219.28477 346.6 
M 219.725937 346.6 
L 219.727417 196.180603 
L 219.728897 346.6 
M 220.170057 346.6 
L 220.171541 195.831956 
L 220.173025 346.6 
M 220.614177 346.6 
L 220.615665 195.470077 
L 220.617152 346.6 
M 221.058298 346.6 
L 221.059789 195.09562 
L 221.06128 346.6 
M 221.502418 346.6 
L 221.503912 194.709413 
L 221.505407 346.6 
M 221.946538 346.6 
L 221.948036 194.312426 
L 221.949535 346.6 
M 222.390658 346.6 
L 222.39216 193.905742 
L 222.393663 346.6 
M 222.834777 346.6 
L 222.836284 193.498519 
L 222.837791 346.6 
M 223.278897 346.6 
L 223.280408 193.093227 
L 223.281919 346.6 
M 223.723017 346.6 
L 223.724532 192.689706 
L 223.726046 346.6 
M 224.167137 346.6 
L 224.168656 192.287813 
L 224.170174 346.6 
M 224.611257 346.6 
L 224.61278 191.887423 
L 224.614302 346.6 
M 225.055377 346.6 
L 225.056903 191.48843 
L 225.05843 346.6 
M 225.499497 346.6 
L 225.501027 191.090744 
L 225.502557 346.6 
M 225.943617 346.6 
L 225.945151 190.694287 
L 225.946685 346.6 
M 226.387737 346.6 
L 226.389275 190.298998 
L 226.390813 346.6 
M 226.831857 346.6 
L 226.833399 189.904825 
L 226.834941 346.6 
M 227.275977 346.6 
L 227.277523 189.511728 
L 227.279068 346.6 
M 227.720097 346.6 
L 227.721647 189.119678 
L 227.723196 346.6 
M 228.164217 346.6 
L 228.16577 188.728652 
L 228.167324 346.6 
M 228.608337 346.6 
L 228.609894 188.338635 
L 228.611451 346.6 
M 229.052457 346.6 
L 229.054018 187.949619 
L 229.055579 346.6 
M 229.496577 346.6 
L 229.498142 187.561599 
L 229.499707 346.6 
M 229.940697 346.6 
L 229.942266 187.174576 
L 229.943834 346.6 
M 230.384818 346.6 
L 230.38639 186.788551 
L 230.387962 346.6 
M 230.828938 346.6 
L 230.830514 186.403531 
L 230.83209 346.6 
M 231.273058 346.6 
L 231.274637 186.019521 
L 231.276217 346.6 
M 231.717178 346.6 
L 231.718761 185.636528 
L 231.720345 346.6 
M 232.161298 346.6 
L 232.162885 185.254558 
L 232.164472 346.6 
M 232.605418 346.6 
L 232.607009 184.873617 
L 232.6086 346.6 
M 233.049538 346.6 
L 233.051133 184.493709 
L 233.052728 346.6 
M 233.493658 346.6 
L 233.495257 184.114837 
L 233.496855 346.6 
M 233.937779 346.6 
L 233.939381 183.737002 
L 233.940983 346.6 
M 234.381899 346.6 
L 234.383505 183.360202 
L 234.38511 346.6 
M 234.826019 346.6 
L 234.827628 182.984432 
L 234.829238 346.6 
M 235.270139 346.6 
L 235.271752 182.609686 
L 235.273365 346.6 
M 235.714259 346.6 
L 235.715876 182.235955 
L 235.717493 346.6 
M 236.15838 346.6 
L 236.16 181.860782 
L 236.16162 346.6 
M 236.6025 346.6 
L 236.604124 181.483743 
L 236.605748 346.6 
M 237.04662 346.6 
L 237.048248 181.105211 
L 237.049875 346.6 
M 237.49074 346.6 
L 237.492372 180.725554 
L 237.494003 346.6 
M 237.93486 346.6 
L 237.936495 180.345133 
L 237.938131 346.6 
M 238.37898 346.6 
L 238.380619 179.964291 
L 238.382258 346.6 
M 238.823101 346.6 
L 238.824743 179.583357 
L 238.826386 346.6 
M 239.267221 346.6 
L 239.268867 179.202637 
L 239.270513 346.6 
M 239.711341 346.6 
L 239.712991 178.822415 
L 239.714641 346.6 
M 240.155461 346.6 
L 240.157115 178.442949 
L 240.158768 346.6 
M 240.599581 346.6 
L 240.601239 178.06447 
L 240.602896 346.6 
M 241.043701 346.6 
L 241.045363 177.687185 
L 241.047024 346.6 
M 241.487822 346.6 
L 241.489486 177.31127 
L 241.491151 346.6 
M 241.931942 346.6 
L 241.93361 176.936875 
L 241.935279 346.6 
M 242.376062 346.6 
L 242.377734 176.564121 
L 242.379406 346.6 
M 242.820182 346.6 
L 242.821858 176.193105 
L 242.823534 346.6 
M 243.264303 346.6 
L 243.265982 175.823894 
L 243.267661 346.6 
M 243.708423 346.6 
L 243.710106 175.456535 
L 243.711789 346.6 
M 244.152543 346.6 
L 244.15423 175.091048 
L 244.155916 346.6 
M 244.596663 346.6 
L 244.598353 174.727431 
L 244.600043 346.6 
M 245.040784 346.6 
L 245.042477 174.365665 
L 245.044171 346.6 
M 245.484904 346.6 
L 245.486601 174.005709 
L 245.488298 346.6 
M 245.929025 346.6 
L 245.930725 173.647506 
L 245.932426 346.6 
M 246.373145 346.6 
L 246.374849 173.290984 
L 246.376553 346.6 
M 246.817265 346.6 
L 246.818973 172.936058 
L 246.82068 346.6 
M 247.261386 346.6 
L 247.263097 172.58263 
L 247.264808 346.6 
M 247.705506 346.6 
L 247.70722 172.230594 
L 247.708935 346.6 
M 248.149627 346.6 
L 248.151344 171.879836 
L 248.153062 346.6 
M 248.593747 346.6 
L 248.595468 171.529741 
L 248.597189 346.6 
M 249.037868 346.6 
L 249.039592 171.179647 
L 249.041317 346.6 
M 249.481988 346.6 
L 249.483716 170.829554 
L 249.485444 346.6 
M 249.926108 346.6 
L 249.92784 170.479463 
L 249.929571 346.6 
M 250.370229 346.6 
L 250.371964 170.129373 
L 250.373699 346.6 
M 250.814349 346.6 
L 250.816088 169.779284 
L 250.817826 346.6 
M 251.25847 346.6 
L 251.260211 169.429196 
L 251.261953 346.6 
M 251.70259 346.6 
L 251.704335 169.079109 
L 251.70608 346.6 
M 252.146711 346.6 
L 252.148459 168.729024 
L 252.150208 346.6 
M 252.590831 346.6 
L 252.592583 168.378939 
L 252.594335 346.6 
M 253.034952 346.6 
L 253.036707 168.028856 
L 253.038462 346.6 
M 253.479072 346.6 
L 253.480831 167.678774 
L 253.482589 346.6 
M 253.923192 346.6 
L 253.924955 167.328693 
L 253.926717 346.6 
M 254.367313 346.6 
L 254.369078 166.978612 
L 254.370844 346.6 
M 254.811433 346.6 
L 254.813202 166.628533 
L 254.814971 346.6 
M 255.255554 346.6 
L 255.257326 166.278455 
L 255.259099 346.6 
M 255.699674 346.6 
L 255.70145 165.928378 
L 255.703226 346.6 
M 256.143795 346.6 
L 256.145574 165.578302 
L 256.147353 346.6 
M 256.587915 346.6 
L 256.589698 165.228226 
L 256.59148 346.6 
M 257.032036 346.6 
L 257.033822 164.878152 
L 257.035608 346.6 
M 257.476156 346.6 
L 257.477946 164.528079 
L 257.479735 346.6 
M 257.920277 346.6 
L 257.922069 164.178006 
L 257.923862 346.6 
M 258.364397 346.6 
L 258.366193 163.827934 
L 258.36799 346.6 
M 258.808517 346.6 
L 258.810317 163.477863 
L 258.812117 346.6 
M 259.252638 346.6 
L 259.254441 163.127793 
L 259.256244 346.6 
M 259.696758 346.6 
L 259.698565 162.777724 
L 259.700371 346.6 
M 260.140879 346.6 
L 260.142689 162.427656 
L 260.144499 346.6 
M 260.584999 346.6 
L 260.586813 162.077588 
L 260.588626 346.6 
M 261.02912 346.6 
L 261.030936 161.727522 
L 261.032753 346.6 
M 261.47324 346.6 
L 261.47506 161.377456 
L 261.47688 346.6 
M 261.917361 346.6 
L 261.919184 161.02739 
L 261.921008 346.6 
M 262.361481 346.6 
L 262.363308 160.677326 
L 262.365135 346.6 
M 262.805602 346.6 
L 262.807432 160.327262 
L 262.809262 346.6 
M 263.249722 346.6 
L 263.251556 159.977199 
L 263.25339 346.6 
M 263.693842 346.6 
L 263.69568 159.627137 
L 263.697517 346.6 
M 264.137963 346.6 
L 264.139804 159.277075 
L 264.141644 346.6 
M 264.582083 346.6 
L 264.583927 158.927014 
L 264.585771 346.6 
M 265.026204 346.6 
L 265.028051 158.576954 
L 265.029899 346.6 
M 265.470324 346.6 
L 265.472175 158.226894 
L 265.474026 346.6 
M 265.914445 346.6 
L 265.916299 157.876835 
L 265.918153 346.6 
M 266.358565 346.6 
L 266.360423 157.526777 
L 266.362281 346.6 
M 266.802686 346.6 
L 266.804547 157.176789 
L 266.806408 346.6 
M 267.246806 346.6 
L 267.248671 156.827043 
L 267.250535 346.6 
M 267.690927 346.6 
L 267.692794 156.477511 
L 267.694662 346.6 
M 268.135047 346.6 
L 268.136918 156.128161 
L 268.13879 346.6 
M 268.579167 346.6 
L 268.581042 155.778966 
L 268.582917 346.6 
M 269.023288 346.6 
L 269.025166 155.429896 
L 269.027044 346.6 
M 269.467408 346.6 
L 269.46929 155.080922 
L 269.471171 346.6 
M 269.911529 346.6 
L 269.913414 154.732018 
L 269.915299 346.6 
M 270.355649 346.6 
L 270.357538 154.383157 
L 270.359426 346.6 
M 270.79977 346.6 
L 270.801661 154.034315 
L 270.803553 346.6 
M 271.24389 346.6 
L 271.245785 153.685469 
L 271.24768 346.6 
M 271.688011 346.6 
L 271.689909 153.336598 
L 271.691808 346.6 
M 272.132131 346.6 
L 272.134033 152.987683 
L 272.135935 346.6 
M 272.576252 346.6 
L 272.578157 152.638708 
L 272.580062 346.6 
M 273.020372 346.6 
L 273.022281 152.289657 
L 273.024189 346.6 
M 273.464493 346.6 
L 273.466405 151.940517 
L 273.468317 346.6 
M 273.908613 346.6 
L 273.910529 151.591279 
L 273.912444 346.6 
M 274.352734 346.6 
L 274.354652 151.241934 
L 274.356571 346.6 
M 274.796854 346.6 
L 274.798776 150.892476 
L 274.800699 346.6 
M 275.240974 346.6 
L 275.2429 150.5429 
L 275.244826 346.6 
M 275.685095 346.6 
L 275.687024 150.193205 
L 275.688953 346.6 
M 276.129215 346.6 
L 276.131148 149.843388 
L 276.13308 346.6 
M 276.573336 346.6 
L 276.575272 149.493453 
L 276.577208 346.6 
M 277.017456 346.6 
L 277.019396 149.143402 
L 277.021335 346.6 
M 277.461577 346.6 
L 277.463519 148.793238 
L 277.465462 346.6 
M 277.905697 346.6 
L 277.907643 148.442968 
L 277.909589 346.6 
M 278.349818 346.6 
L 278.351767 148.092597 
L 278.353717 346.6 
M 278.793938 346.6 
L 278.795891 147.742133 
L 278.797844 346.6 
M 279.238059 346.6 
L 279.240015 147.391585 
L 279.241971 346.6 
M 279.682179 346.6 
L 279.684139 147.040961 
L 279.686099 346.6 
M 280.126299 346.6 
L 280.128263 146.69027 
L 280.130226 346.6 
M 280.57042 346.6 
L 280.572387 146.339523 
L 280.574353 346.6 
M 281.01454 346.6 
L 281.01651 145.988728 
L 281.01848 346.6 
M 281.458661 346.6 
L 281.460634 145.637896 
L 281.462608 346.6 
M 281.902781 346.6 
L 281.904758 145.287036 
L 281.906735 346.6 
M 282.346902 346.6 
L 282.348882 144.936157 
L 282.350862 346.6 
M 282.791022 346.6 
L 282.793006 144.58527 
L 282.79499 346.6 
M 283.235143 346.6 
L 283.23713 144.234382 
L 283.239117 346.6 
M 283.679263 346.6 
L 283.681254 143.883501 
L 283.683244 346.6 
M 284.123384 346.6 
L 284.125377 143.532636 
L 284.127371 346.6 
M 284.567504 346.6 
L 284.569501 143.181793 
L 284.571499 346.6 
M 285.011624 346.6 
L 285.013625 142.830978 
L 285.015626 346.6 
M 285.455745 346.6 
L 285.457749 142.480198 
L 285.459753 346.6 
M 285.899865 346.6 
L 285.901873 142.129456 
L 285.90388 346.6 
M 286.343986 346.6 
L 286.345997 141.778758 
L 286.348008 346.6 
M 286.788106 346.6 
L 286.790121 141.428106 
L 286.792135 346.6 
M 287.232227 346.6 
L 287.234244 141.077503 
L 287.236262 346.6 
M 287.676347 346.6 
L 287.678368 140.726951 
L 287.68039 346.6 
M 288.120468 346.6 
L 288.122492 140.376452 
L 288.124517 346.6 
M 288.564588 346.6 
L 288.566616 140.026005 
L 288.568644 346.6 
M 289.008708 346.6 
L 289.01074 139.67561 
L 289.012771 346.6 
M 289.452829 346.6 
L 289.454864 139.325268 
L 289.456899 346.6 
M 289.896949 346.6 
L 289.898988 138.974976 
L 289.901026 346.6 
M 290.34107 346.6 
L 290.343112 138.624733 
L 290.345153 346.6 
M 290.78519 346.6 
L 290.787235 138.274536 
L 290.789281 346.6 
M 291.229311 346.6 
L 291.231359 137.924384 
L 291.233408 346.6 
M 291.673431 346.6 
L 291.675483 137.574274 
L 291.677535 346.6 
M 292.117552 346.6 
L 292.119607 137.224201 
L 292.121662 346.6 
M 292.561672 346.6 
L 292.563731 136.874163 
L 292.56579 346.6 
M 293.005793 346.6 
L 293.007855 136.524128 
L 293.009917 346.6 
M 293.449913 346.6 
L 293.451979 136.174094 
L 293.454044 346.6 
M 293.894034 346.6 
L 293.896102 135.824059 
L 293.898171 346.6 
M 294.338154 346.6 
L 294.340226 135.474025 
L 294.342299 346.6 
M 294.782274 346.6 
L 294.78435 135.123991 
L 294.786426 346.6 
M 295.226395 346.6 
L 295.228474 134.773957 
L 295.230553 346.6 
M 295.670515 346.6 
L 295.672598 134.423923 
L 295.67468 346.6 
M 296.114636 346.6 
L 296.116722 134.07389 
L 296.118808 346.6 
M 296.558756 346.6 
L 296.560846 133.723856 
L 296.562935 346.6 
M 297.002877 346.6 
L 297.00497 133.373823 
L 297.007062 346.6 
M 297.446997 346.6 
L 297.449093 133.02379 
L 297.45119 346.6 
M 297.891118 346.6 
L 297.893217 132.673758 
L 297.895317 346.6 
M 298.335238 346.6 
L 298.337341 132.323725 
L 298.339444 346.6 
M 298.779359 346.6 
L 298.781465 131.973693 
L 298.783571 346.6 
M 299.223479 346.6 
L 299.225589 131.62366 
L 299.227699 346.6 
M 299.6676 346.6 
L 299.669713 131.273628 
L 299.671826 346.6 
M 300.11172 346.6 
L 300.113837 130.923596 
L 300.115953 346.6 
M 300.55584 346.6 
L 300.55796 130.573565 
L 300.56008 346.6 
M 300.999961 346.6 
L 301.002084 130.223533 
L 301.004208 346.6 
M 301.444081 346.6 
L 301.446208 129.873502 
L 301.448335 346.6 
M 301.888202 346.6 
L 301.890332 129.52347 
L 301.892462 346.6 
M 302.332322 346.6 
L 302.334456 129.173439 
L 302.336589 346.6 
M 302.776443 346.6 
L 302.77858 128.823408 
L 302.780717 346.6 
M 303.220563 346.6 
L 303.222704 128.473377 
L 303.224844 346.6 
M 303.664684 346.6 
L 303.666828 128.123346 
L 303.668971 346.6 
M 304.108804 346.6 
L 304.110951 127.773316 
L 304.113099 346.6 
M 304.552925 346.6 
L 304.555075 127.423285 
L 304.557226 346.6 
M 304.997045 346.6 
L 304.999199 127.073255 
L 305.001353 346.6 
M 305.441166 346.6 
L 305.443323 126.723225 
L 305.44548 346.6 
M 305.885286 346.6 
L 305.887447 126.373195 
L 305.889608 346.6 
M 306.329407 346.6 
L 306.331571 126.023165 
L 306.333735 346.6 
M 306.773527 346.6 
L 306.775695 125.673135 
L 306.777862 346.6 
M 307.217647 346.6 
L 307.219818 125.323105 
L 307.221989 346.6 
M 307.661768 346.6 
L 307.663942 124.973076 
L 307.666117 346.6 
M 308.105888 346.6 
L 308.108066 124.623046 
L 308.110244 346.6 
M 308.550009 346.6 
L 308.55219 124.273017 
L 308.554371 346.6 
M 308.994129 346.6 
L 308.996314 123.922987 
L 308.998498 346.6 
M 309.43825 346.6 
L 309.440438 123.572958 
L 309.442626 346.6 
M 309.88237 346.6 
L 309.884562 123.222929 
L 309.886753 346.6 
M 310.326491 346.6 
L 310.328685 122.8729 
L 310.33088 346.6 
M 310.770611 346.6 
L 310.772809 122.522871 
L 310.775008 346.6 
M 311.214732 346.6 
L 311.216933 122.172843 
L 311.219135 346.6 
M 311.658852 346.6 
L 311.661057 121.822814 
L 311.663262 346.6 
M 312.102973 346.6 
L 312.105181 121.472786 
L 312.107389 346.6 
M 312.547093 346.6 
L 312.549305 121.122757 
L 312.551517 346.6 
M 312.991213 346.6 
L 312.993429 120.772729 
L 312.995644 346.6 
M 313.435334 346.6 
L 313.437553 120.422701 
L 313.439771 346.6 
M 313.879454 346.6 
L 313.881676 120.072672 
L 313.883898 346.6 
M 314.323575 346.6 
L 314.3258 119.722644 
L 314.328026 346.6 
M 314.767695 346.6 
L 314.769924 119.372616 
L 314.772153 346.6 
M 315.211816 346.6 
L 315.214048 119.022588 
L 315.21628 346.6 
M 315.655936 346.6 
L 315.658172 118.672561 
L 315.660407 346.6 
M 316.100057 346.6 
L 316.102296 118.322533 
L 316.104535 346.6 
M 316.544177 346.6 
L 316.54642 117.972505 
L 316.548662 346.6 
M 316.988298 346.6 
L 316.990543 117.622478 
L 316.992789 346.6 
M 317.432418 346.6 
L 317.434667 117.27245 
L 317.436917 346.6 
M 317.876539 346.6 
L 317.878791 116.922423 
L 317.881044 346.6 
M 318.320659 346.6 
L 318.322915 116.572395 
L 318.325171 346.6 
M 318.76478 346.6 
L 318.767039 116.222368 
L 318.769298 346.6 
M 319.2089 346.6 
L 319.211163 115.872341 
L 319.213426 346.6 
M 319.65302 346.6 
L 319.655287 115.522314 
L 319.657553 346.6 
M 320.097141 346.6 
L 320.099411 115.172287 
L 320.10168 346.6 
M 320.541261 346.6 
L 320.543534 114.82226 
L 320.545807 346.6 
M 320.985382 346.6 
L 320.987658 114.472232 
L 320.989935 346.6 
M 321.429502 346.6 
L 321.431782 114.122202 
L 321.434062 346.6 
M 321.873623 346.6 
L 321.875906 113.772169 
L 321.878189 346.6 
M 322.317743 346.6 
L 322.32003 113.422134 
L 322.322316 346.6 
M 322.761864 346.6 
L 322.764154 113.072096 
L 322.766444 346.6 
M 323.205984 346.6 
L 323.208278 112.722057 
L 323.210571 346.6 
M 323.650105 346.6 
L 323.652401 112.372017 
L 323.654698 346.6 
M 324.094225 346.6 
L 324.096525 112.021976 
L 324.098825 346.6 
M 324.538346 346.6 
L 324.540649 111.671935 
L 324.542953 346.6 
M 324.982466 346.6 
L 324.984773 111.321893 
L 324.98708 346.6 
M 325.426587 346.6 
L 325.428897 110.971852 
L 325.431207 346.6 
M 325.870707 346.6 
L 325.873021 110.62181 
L 325.875334 346.6 
M 326.314828 346.6 
L 326.317145 110.27177 
L 326.319462 346.6 
M 326.758948 346.6 
L 326.761268 109.92173 
L 326.763589 346.6 
M 327.203068 346.6 
L 327.205392 109.571691 
L 327.207716 346.6 
M 327.647189 346.6 
L 327.649516 109.221653 
L 327.651844 346.6 
M 328.091309 346.6 
L 328.09364 108.871616 
L 328.095971 346.6 
M 328.53543 346.6 
L 328.537764 108.521581 
L 328.540098 346.6 
M 328.97955 346.6 
L 328.981888 108.171548 
L 328.984225 346.6 
M 329.423671 346.6 
L 329.426012 107.821516 
L 329.428353 346.6 
M 329.867791 346.6 
L 329.870136 107.471485 
L 329.87248 346.6 
M 330.311912 346.6 
L 330.314259 107.121456 
L 330.316607 346.6 
M 330.756032 346.6 
L 330.758383 106.771429 
L 330.760734 346.6 
M 331.200153 346.6 
L 331.202507 106.421403 
L 331.204862 346.6 
M 331.644273 346.6 
L 331.646631 106.071379 
L 331.648989 346.6 
M 332.088394 346.6 
L 332.090755 105.721356 
L 332.093116 346.6 
M 332.532514 346.6 
L 332.534879 105.371334 
L 332.537243 346.6 
M 332.976635 346.6 
L 332.979003 105.021314 
L 332.981371 346.6 
M 333.420755 346.6 
L 333.423126 104.671295 
L 333.425498 346.6 
M 333.864876 346.6 
L 333.86725 104.321277 
L 333.869625 346.6 
M 334.308996 346.6 
L 334.311374 103.971259 
L 334.313752 346.6 
M 334.753116 346.6 
L 334.755498 103.621243 
L 334.75788 346.6 
M 335.197237 346.6 
L 335.199622 103.271227 
L 335.202007 346.6 
M 335.641357 346.6 
L 335.643746 102.921212 
L 335.646134 346.6 
M 336.085478 346.6 
L 336.08787 102.571197 
L 336.090261 346.6 
M 336.529598 346.6 
L 336.531994 102.221182 
L 336.534389 346.6 
M 336.973719 346.6 
L 336.976117 101.871168 
L 336.978516 346.6 
M 337.417839 346.6 
L 337.420241 101.521154 
L 337.422643 346.6 
M 337.86196 346.6 
L 337.864365 101.171139 
L 337.866771 346.6 
M 338.30608 346.6 
L 338.308489 100.821125 
L 338.310898 346.6 
M 338.750201 346.6 
L 338.752613 100.47111 
L 338.755025 346.6 
M 339.194321 346.6 
L 339.196737 100.121095 
L 339.199152 346.6 
M 339.638442 346.6 
L 339.640861 99.771079 
L 339.64328 346.6 
M 340.082562 346.6 
L 340.084984 99.421064 
L 340.087407 346.6 
M 340.526683 346.6 
L 340.529108 99.071047 
L 340.531534 346.6 
M 340.970803 346.6 
L 340.973232 98.72103 
L 340.975661 346.6 
M 341.414924 346.6 
L 341.417356 98.371013 
L 341.419789 346.6 
M 341.859044 346.6 
L 341.86148 98.020994 
L 341.863916 346.6 
M 342.303164 346.6 
L 342.305604 97.670976 
L 342.308043 346.6 
M 342.747285 346.6 
L 342.749728 97.320956 
L 342.75217 346.6 
M 343.191405 346.6 
L 343.193852 96.970936 
L 343.196298 346.6 
M 343.635526 346.6 
L 343.637975 96.620916 
L 343.640425 346.6 
M 344.079646 346.6 
L 344.082099 96.270894 
L 344.084552 346.6 
M 344.523767 346.6 
L 344.526223 95.920872 
L 344.528679 346.6 
M 344.967887 346.6 
L 344.970347 95.57085 
L 344.972807 346.6 
M 345.412008 346.6 
L 345.414471 95.220827 
L 345.416934 346.6 
M 345.856128 346.6 
L 345.858595 94.870803 
L 345.861061 346.6 
M 346.300249 346.6 
L 346.302719 94.520779 
L 346.305188 346.6 
M 346.744369 346.6 
L 346.746842 94.170755 
L 346.749316 346.6 
M 347.18849 346.6 
L 347.190966 93.82073 
L 347.193443 346.6 
M 347.63261 346.6 
L 347.63509 93.470706 
L 347.63757 346.6 
M 348.076731 346.6 
L 348.079214 93.120682 
L 348.081697 346.6 
M 348.520851 346.6 
L 348.523338 92.770657 
L 348.525825 346.6 
M 348.964972 346.6 
L 348.967462 92.420633 
L 348.969952 346.6 
M 349.409092 346.6 
L 349.411586 92.070608 
L 349.414079 346.6 
M 349.853213 346.6 
L 349.855709 91.720584 
L 349.858206 346.6 
M 350.297333 346.6 
L 350.299833 91.37056 
L 350.302334 346.6 
M 350.741453 346.6 
L 350.743957 91.020535 
L 350.746461 346.6 
M 351.185574 346.6 
L 351.188081 90.670511 
L 351.190588 346.6 
M 351.629694 346.6 
L 351.632205 90.320487 
L 351.634715 346.6 
M 352.073815 346.6 
L 352.076329 89.970463 
L 352.078843 346.6 
M 352.517935 346.6 
L 352.520453 89.620438 
L 352.52297 346.6 
M 352.962056 346.6 
L 352.964577 89.270414 
L 352.967097 346.6 
M 353.406176 346.6 
L 353.4087 88.92039 
L 353.411224 346.6 
M 353.850297 346.6 
L 353.852824 88.570366 
L 353.855352 346.6 
M 354.294417 346.6 
L 354.296948 88.220342 
L 354.299479 346.6 
M 354.738538 346.6 
L 354.741072 87.870318 
L 354.743606 346.6 
M 355.182658 346.6 
L 355.185196 87.520293 
L 355.187734 346.6 
M 355.626779 346.6 
L 355.62932 87.170269 
L 355.631861 346.6 
M 356.070899 346.6 
L 356.073444 86.820245 
L 356.075988 346.6 
M 356.51502 346.6 
L 356.517567 86.470221 
L 356.520115 346.6 
M 356.95914 346.6 
L 356.961691 86.120197 
L 356.964243 346.6 
M 357.403261 346.6 
L 357.405815 85.770173 
L 357.40837 346.6 
M 357.847381 346.6 
L 357.849939 85.420149 
L 357.852497 346.6 
M 358.291502 346.6 
L 358.294063 85.070125 
L 358.296624 346.6 
M 358.735622 346.6 
L 358.738187 84.720101 
L 358.740752 346.6 
M 359.179743 346.6 
L 359.182311 84.370077 
L 359.184879 346.6 
M 359.623863 346.6 
L 359.626435 84.020053 
L 359.629006 346.6 
M 360.067983 346.6 
L 360.070558 83.670029 
L 360.073133 346.6 
M 360.512104 346.6 
L 360.514682 83.320005 
L 360.517261 346.6 
M 360.956224 346.6 
L 360.958806 82.969981 
L 360.961388 346.6 
M 361.400345 346.6 
L 361.40293 82.619957 
L 361.405515 346.6 
M 361.844465 346.6 
L 361.847054 82.269933 
L 361.849642 346.6 
M 362.288586 346.6 
L 362.291178 81.919909 
L 362.29377 346.6 
M 362.732706 346.6 
L 362.735302 81.569886 
L 362.737897 346.6 
M 363.176827 346.6 
L 363.179425 81.219862 
L 363.182024 346.6 
M 363.620947 346.6 
L 363.623549 80.869838 
L 363.626151 346.6 
M 364.065068 346.6 
L 364.067673 80.519814 
L 364.070279 346.6 
M 364.509188 346.6 
L 364.511797 80.16979 
L 364.514406 346.6 
M 364.953309 346.6 
L 364.955921 79.819766 
L 364.958533 346.6 
M 365.397429 346.6 
L 365.400045 79.469742 
L 365.40266 346.6 
M 365.84155 346.6 
L 365.844169 79.119718 
L 365.846788 346.6 
M 366.28567 346.6 
L 366.288293 78.769694 
L 366.290915 346.6 
M 366.729791 346.6 
L 366.732416 78.41967 
L 366.735042 346.6 
M 367.173911 346.6 
L 367.17654 78.069646 
L 367.179169 346.6 
M 367.618032 346.6 
L 367.620664 77.719622 
L 367.623297 346.6 
M 368.062152 346.6 
L 368.064788 77.369598 
L 368.067424 346.6 
M 368.506273 346.6 
L 368.508912 77.019574 
L 368.511551 346.6 
M 368.950393 346.6 
L 368.953036 76.66955 
L 368.955678 346.6 
M 369.394514 346.6 
L 369.39716 76.319526 
L 369.399806 346.6 
M 369.838634 346.6 
L 369.841283 75.969501 
L 369.843933 346.6 
M 370.282754 346.6 
L 370.285407 75.619477 
L 370.28806 346.6 
M 370.726875 346.6 
L 370.729531 75.269453 
L 370.732187 346.6 
M 371.170995 346.6 
L 371.173655 74.919429 
L 371.176315 346.6 
M 371.615116 346.6 
L 371.617779 74.569405 
L 371.620442 346.6 
M 372.059236 346.6 
L 372.061903 74.219381 
L 372.064569 346.6 
M 372.503357 346.6 
L 372.506027 73.869357 
L 372.508696 346.6 
M 372.947477 346.6 
L 372.95015 73.519333 
L 372.952824 346.6 
M 373.391598 346.6 
L 373.394274 73.169309 
L 373.396951 346.6 
M 373.835718 346.6 
L 373.838398 72.819286 
L 373.841078 346.6 
M 374.279839 346.6 
L 374.282522 72.469262 
L 374.285205 346.6 
M 374.723959 346.6 
L 374.726646 72.119238 
L 374.729333 346.6 
M 375.16808 346.6 
L 375.17077 71.769214 
L 375.17346 346.6 
M 375.6122 346.6 
L 375.614894 71.419191 
L 375.617587 346.6 
M 376.056321 346.6 
L 376.059018 71.069167 
L 376.061714 346.6 
M 376.500441 346.6 
L 376.503141 70.719144 
L 376.505842 346.6 
M 376.944562 346.6 
L 376.947265 70.36912 
L 376.949969 346.6 
M 377.388682 346.6 
L 377.391389 70.019097 
L 377.394096 346.6 
M 377.832803 346.6 
L 377.835513 69.669074 
L 377.838223 346.6 
M 378.276923 346.6 
L 378.279637 69.31905 
L 378.282351 346.6 
M 378.721044 346.6 
L 378.723761 68.969027 
L 378.726478 346.6 
M 379.165164 346.6 
L 379.167885 68.619003 
L 379.170605 346.6 
M 379.609285 346.6 
L 379.612008 68.26898 
L 379.614732 346.6 
M 380.053405 346.6 
L 380.056132 67.918957 
L 380.05886 346.6 
M 380.497526 346.6 
L 380.500256 67.568933 
L 380.502987 346.6 
M 380.941646 346.6 
L 380.94438 67.21891 
L 380.947114 346.6 
M 381.385766 346.6 
L 381.388504 66.868886 
L 381.391241 346.6 
M 381.829887 346.6 
L 381.832628 66.518863 
L 381.835369 346.6 
M 382.274007 346.6 
L 382.276752 66.16884 
L 382.279496 346.6 
M 382.718128 346.6 
L 382.720876 65.818816 
L 382.723623 346.6 
M 383.162248 346.6 
L 383.164999 65.468793 
L 383.16775 346.6 
M 383.606369 346.6 
L 383.609123 65.11877 
L 383.611878 346.6 
M 384.050489 346.6 
L 384.053247 64.768746 
L 384.056005 346.6 
M 384.49461 346.6 
L 384.497371 64.418723 
L 384.500132 346.6 
M 384.93873 346.6 
L 384.941495 64.0687 
L 384.944259 346.6 
M 385.382851 346.6 
L 385.385619 63.718676 
L 385.388387 346.6 
M 385.826971 346.6 
L 385.829743 63.368653 
L 385.832514 346.6 
M 386.271092 346.6 
L 386.273866 63.01863 
L 386.276641 346.6 
M 386.715212 346.6 
L 386.71799 62.668606 
L 386.720768 346.6 
M 387.159333 346.6 
L 387.162114 62.318583 
L 387.164896 346.6 
M 387.603453 346.6 
L 387.606238 61.968559 
L 387.609023 346.6 
M 388.047574 346.6 
L 388.050362 61.618536 
L 388.05315 346.6 
M 388.491694 346.6 
L 388.494486 61.268513 
L 388.497277 346.6 
M 388.935815 346.6 
L 388.93861 60.918489 
L 388.941405 346.6 
M 389.379935 346.6 
L 389.382733 60.568466 
L 389.385532 346.6 
M 389.824056 346.6 
L 389.826857 60.218443 
L 389.829659 346.6 
M 390.268176 346.6 
L 390.270981 59.868419 
L 390.273786 346.6 
M 390.712297 346.6 
L 390.715105 59.518396 
L 390.717914 346.6 
M 391.156417 346.6 
L 391.159229 59.168373 
L 391.162041 346.6 
M 391.600538 346.6 
L 391.603353 58.818349 
L 391.606168 346.6 
M 392.044658 346.6 
L 392.047477 58.468326 
L 392.050295 346.6 
M 392.488779 346.6 
L 392.491601 58.118303 
L 392.494423 346.6 
M 392.932899 346.6 
L 392.935724 57.768279 
L 392.93855 346.6 
M 393.37702 346.6 
L 393.379848 57.418256 
L 393.382677 346.6 
M 393.82114 346.6 
L 393.823972 57.068233 
L 393.826804 346.6 
M 394.265261 346.6 
L 394.268096 56.71821 
L 394.270931 346.6 
M 394.709381 346.6 
L 394.71222 56.368186 
L 394.715059 346.6 
M 395.153501 346.6 
L 395.156344 56.018163 
L 395.159186 346.6 
M 395.597622 346.6 
L 395.600468 55.66814 
L 395.603313 346.6 
M 396.041742 346.6 
L 396.044591 55.318116 
L 396.04744 346.6 
M 396.485863 346.6 
L 396.488715 54.968093 
L 396.491568 346.6 
M 396.929983 346.6 
L 396.932839 54.61807 
L 396.935695 346.6 
M 397.374104 346.6 
L 397.376963 54.268047 
L 397.379822 346.6 
M 397.818224 346.6 
L 397.821087 53.918023 
L 397.823949 346.6 
M 398.262345 346.6 
L 398.265211 53.568 
L 398.268077 346.6 
" clip-path="url(#p31f8204cfa)" style="fill: none; stroke: #1f77b4; stroke-width: 1.5; stroke-linecap: square"/>
   </g>
   <g id="patch_3">
    <path d="M 57.6 307.584 
L 57.6 41.472 
" style="fill: none; stroke: #000000; stroke-width: 0.8; stroke-linejoin: miter; stroke-linecap: square"/>
   </g>
   <g id="patch_4">
    <path d="M 414.72 307.584 
L 414.72 41.472 
" style="fill: none; stroke: #000000; stroke-width: 0.8; stroke-linejoin: miter; stroke-linecap: square"/>
   </g>
   <g id="patch_5">
    <path d="M 57.6 307.584 
L 414.72 307.584 
" style="fill: none; stroke: #000000; stroke-width: 0.8; stroke-linejoin: miter; stroke-linecap: square"/>
   </g>
   <g id="patch_6">
    <path d="M 57.6 41.472 
L 414.72 41.472 
" style="fill: none; stroke: #000000; stroke-width: 0.8; stroke-linejoin: miter; stroke-linecap: square"/>
   </g>
  </g>
 </g>
 <defs>
  <clipPath id="p31f8204cfa">
   <rect x="57.6" y="41.472" width="357.12" height="266.112"/>
  </clipPath>
 </defs>
</svg>
